<svg width="96" height="96" viewBox="0 0 96 96" fill="none" xmlns="http://www.w3.org/2000/svg">
<g clip-path="url(#clip0_4479_135)">
<path d="M58.8999 20.45C55.7088 18.2043 51.902 16.9991 47.9999 16.9991C44.0978 16.9991 40.291 18.2043 37.0999 20.45L33.6499 15.54C37.8519 12.5856 42.8633 11.0002 47.9999 11.0002C53.1365 11.0002 58.1479 12.5856 62.3499 15.54L58.8999 20.45Z" fill="#00DD39"/>
<path d="M48 15C42.4305 15 37.089 17.2125 33.1508 21.1508C29.2125 25.089 27 30.4305 27 36C27 42.88 29.73 47 32.63 51.38C35.75 56.1 39 61 39 70V71H57V70C57 61 60.24 56.08 63.36 51.36C66.26 47 69 42.87 69 36C69 30.4305 66.7875 25.089 62.8492 21.1508C58.911 17.2125 53.5695 15 48 15ZM61.69 50.28C58.66 54.85 55.24 60 55 69H41C40.76 60 37.36 54.83 34.34 50.26C31.58 46.16 29 42.28 29 36C29 30.9609 31.0018 26.1282 34.565 22.565C38.1282 19.0018 42.9609 17 48 17C53.0391 17 57.8718 19.0018 61.435 22.565C64.9982 26.1282 67 30.9609 67 36C67 42.27 64.42 46.16 61.69 50.27V50.28Z" fill="#004E2B"/>
<path d="M39 82.38L43.55 87H52.33L57 82.35V73H39V82.38ZM55 80.93H41V79H55V80.93ZM51.5 85H44.39L42.39 82.91H53.58L51.49 85H51.5ZM55 75V77H41V75H55Z" fill="#004E2B"/>
<path d="M23.98 35.0999H10V37.0999H23.98V35.0999Z" fill="#004E2B"/>
<path d="M85.97 35.0999H71.99V37.0999H85.97V35.0999Z" fill="#004E2B"/>
<path d="M21.8319 8.43906L20.4177 9.85327L30.3031 19.7386L31.7173 18.3244L21.8319 8.43906Z" fill="#004E2B"/>
<path d="M65.6669 52.2689L64.2527 53.6831L74.138 63.5685L75.5523 62.1542L65.6669 52.2689Z" fill="#004E2B"/>
<path d="M74.1354 8.43643L64.25 18.3218L65.6642 19.736L75.5496 9.85064L74.1354 8.43643Z" fill="#004E2B"/>
<path d="M30.3055 52.2714L20.4202 62.1567L21.8344 63.571L31.7197 53.6856L30.3055 52.2714Z" fill="#004E2B"/>
<path d="M60.62 32.7701L57.82 32.4401C57.71 32.1401 57.59 31.8501 57.46 31.5601L59.2 29.3401L58.79 28.7401C57.8486 27.3435 56.6466 26.1415 55.25 25.2001L54.65 24.7901L52.43 26.5301C52.14 26.4001 51.85 26.2701 51.55 26.1701L51.22 23.3701L50.5 23.2301C48.8486 22.9113 47.1514 22.9113 45.5 23.2301L44.78 23.3701L44.45 26.1701C44.15 26.2801 43.86 26.4001 43.57 26.5301L41.35 24.7901L40.75 25.2001C39.3534 26.1415 38.1515 27.3435 37.21 28.7401L36.8 29.3401L38.54 31.5601C38.41 31.8501 38.28 32.1401 38.18 32.4401L35.38 32.7701L35.24 33.4901C34.92 35.1414 34.92 36.8388 35.24 38.4901L35.38 39.2101L38.18 39.5401C38.29 39.8401 38.41 40.1301 38.54 40.4201L36.8 42.6401L37.21 43.2401C38.1515 44.6367 39.3534 45.8386 40.75 46.7801L41.35 47.1901L43.57 45.4501C43.86 45.5801 44.15 45.7101 44.45 45.8101L44.78 48.6101L45.5 48.7501C47.1513 49.0701 48.8487 49.0701 50.5 48.7501L51.22 48.6101L51.55 45.8101C51.85 45.7001 52.14 45.5801 52.43 45.4501L54.65 47.1901L55.25 46.7801C55.9469 46.3107 56.5966 45.7748 57.19 45.1801C57.7825 44.5845 58.3181 43.935 58.79 43.2401L59.2 42.6401L57.46 40.4201C57.59 40.1301 57.72 39.8401 57.82 39.5401L60.62 39.2101L60.76 38.4901C61.08 36.8388 61.08 35.1414 60.76 33.4901L60.62 32.7701ZM58.91 37.4001L56.29 37.7101L56.11 38.3501C55.9403 38.9456 55.7021 39.5195 55.4 40.0601L55.08 40.6401L56.71 42.7101C56.1337 43.4614 55.4613 44.1338 54.71 44.7101L52.64 43.0801L52.06 43.4001C51.5174 43.6979 50.944 43.9359 50.35 44.1101L49.71 44.2901L49.4 46.9101C48.4638 47.0301 47.5162 47.0301 46.58 46.9101L46.27 44.2901L45.63 44.1101C45.0345 43.9404 44.4606 43.7021 43.92 43.4001L43.34 43.0801L41.28 44.7001C40.5301 44.1222 39.8578 43.45 39.28 42.7001L40.91 40.6301L40.59 40.0501C40.2922 39.5074 40.0542 38.9341 39.88 38.3401L39.7 37.7001L37.08 37.3901C36.96 36.4539 36.96 35.5062 37.08 34.5701L39.7 34.2601L39.88 33.6201C40.0497 33.0245 40.288 32.4507 40.59 31.9101L40.91 31.3301L39.28 29.2601C39.8578 28.5101 40.5301 27.8379 41.28 27.2601L43.35 28.8901L43.93 28.5701C44.4727 28.2723 45.046 28.0342 45.64 27.8601L46.28 27.6801L46.59 25.0601C47.5262 24.9401 48.4738 24.9401 49.41 25.0601L49.72 27.6801L50.36 27.8601C50.9556 28.0297 51.5294 28.268 52.07 28.5701L52.65 28.8901L54.72 27.2601C55.47 27.8379 56.1422 28.5101 56.72 29.2601L55.09 31.3301L55.41 31.9101C55.7078 32.4527 55.9459 33.0261 56.12 33.6201L56.3 34.2601L58.92 34.5701C59.04 35.5062 59.04 36.4539 58.92 37.3901L58.91 37.4001Z" fill="#004E2B"/>
<path d="M48 31C47.0111 31 46.0444 31.2932 45.2222 31.8427C44.3999 32.3921 43.759 33.173 43.3806 34.0866C43.0022 35.0002 42.9031 36.0055 43.0961 36.9755C43.289 37.9454 43.7652 38.8363 44.4645 39.5355C45.1637 40.2348 46.0546 40.711 47.0245 40.9039C47.9945 41.0969 48.9998 40.9978 49.9134 40.6194C50.8271 40.241 51.6079 39.6001 52.1574 38.7779C52.7068 37.9556 53 36.9889 53 36C53 34.6739 52.4732 33.4021 51.5355 32.4645C50.5979 31.5268 49.3261 31 48 31ZM48 39C47.4067 39 46.8266 38.8241 46.3333 38.4944C45.8399 38.1648 45.4554 37.6962 45.2284 37.148C45.0013 36.5999 44.9419 35.9967 45.0576 35.4147C45.1734 34.8328 45.4591 34.2982 45.8787 33.8787C46.2982 33.4591 46.8328 33.1734 47.4147 33.0576C47.9967 32.9419 48.5999 33.0013 49.1481 33.2284C49.6962 33.4554 50.1648 33.8399 50.4944 34.3333C50.8241 34.8266 51 35.4067 51 36C51 36.7956 50.6839 37.5587 50.1213 38.1213C49.5587 38.6839 48.7957 39 48 39Z" fill="#004E2B"/>
</g>
<defs>
<clipPath id="clip0_4479_135">
<rect width="96" height="96" fill="white"/>
</clipPath>
</defs>
</svg>
