<svg xmlns="http://www.w3.org/2000/svg" xmlns:xlink="http://www.w3.org/1999/xlink" viewBox="0 0 152 198" width="152" height="198" preserveAspectRatio="xMidYMid meet" style="width: 100%; height: 100%; transform: translate3d(0px, 0px, 0px); content-visibility: visible;"><defs><clipPath id="__lottie_element_22"><rect width="152" height="198" x="0" y="0"></rect></clipPath></defs><g clip-path="url(#__lottie_element_22)"><g transform="matrix(1,0,0,1,73.8499984741211,78.72899627685547)" opacity="1" style="display: block;"><g opacity="1" transform="matrix(2,0,0,2,0,0)"><path stroke-linecap="butt" stroke-linejoin="miter" fill-opacity="0" stroke-miterlimit="4" stroke="rgb(0,78,43)" stroke-opacity="1" stroke-width="1.5" d=" M2.877000093460083,13.36400032043457 C5.189000129699707,12.737000465393066 7.229000091552734,11.373000144958496 8.682999610900879,9.480999946594238 C10.13700008392334,7.589000225067139 10.925000190734863,5.276000022888184 10.925000190734863,2.8959999084472656 C10.925000190734863,2.8959999084472656 10.925000190734863,-6.133999824523926 10.925000190734863,-6.133999824523926 C10.925000190734863,-8.052000045776367 10.157999992370605,-9.890999794006348 8.791999816894531,-11.246999740600586 C7.426000118255615,-12.602999687194824 5.572999954223633,-13.36400032043457 3.6419999599456787,-13.36400032043457 C3.6419999599456787,-13.36400032043457 -3.640000104904175,-13.36400032043457 -3.640000104904175,-13.36400032043457 C-4.5970001220703125,-13.36400032043457 -5.544000148773193,-13.178000450134277 -6.427999973297119,-12.8149995803833 C-7.311999797821045,-12.45199966430664 -8.114999771118164,-11.918000221252441 -8.791000366210938,-11.246999740600586 C-9.467000007629395,-10.576000213623047 -10.003999710083008,-9.777999877929688 -10.369999885559082,-8.901000022888184 C-10.736000061035156,-8.02400016784668 -10.925000190734863,-7.084000110626221 -10.925000190734863,-6.133999824523926 C-10.925000190734863,-6.133999824523926 -10.925000190734863,2.8959999084472656 -10.925000190734863,2.8959999084472656 C-10.925000190734863,5.269999980926514 -10.140000343322754,7.578000068664551 -8.692999839782715,9.467000007629395 C-7.245999813079834,11.355999946594238 -5.215000152587891,12.720999717712402 -2.9110000133514404,13.354999542236328"></path></g></g><g transform="matrix(1,0,0,1,74.01200103759766,68.33799743652344)" opacity="1" style="display: block;"><g opacity="1" transform="matrix(2,0,0,2,0,0)"><path stroke-linecap="butt" stroke-linejoin="miter" fill-opacity="0" stroke-miterlimit="4" stroke="rgb(0,78,43)" stroke-opacity="1" stroke-width="1.5" d=" M-1.5130000114440918,3.180000066757202 C-1.1119999885559082,3.578000068664551 -0.5680000185966492,3.802000045776367 -0.0010000000474974513,3.803999900817871 C0.5669999718666077,3.802999973297119 1.1100000143051147,3.578000068664551 1.5119999647140503,3.180000066757202 C1.9140000343322754,2.7820000648498535 2.140000104904175,2.243000030517578 2.1419999599456787,1.6790000200271606 C2.1419999599456787,1.6790000200271606 2.1419999599456787,-1.746000051498413 2.1419999599456787,-1.746000051498413 C2.124000072479248,-2.2980000972747803 1.8899999856948853,-2.821000099182129 1.4900000095367432,-3.2049999237060547 C1.090000033378601,-3.5889999866485596 0.5559999942779541,-3.803999900817871 0,-3.803999900817871 C-0.5559999942779541,-3.803999900817871 -1.090000033378601,-3.5889999866485596 -1.4900000095367432,-3.2049999237060547 C-1.8899999856948853,-2.821000099182129 -2.124000072479248,-2.2980000972747803 -2.1419999599456787,-1.746000051498413 C-2.1419999599456787,-1.746000051498413 -2.1419999599456787,1.6790000200271606 -2.1419999599456787,1.6790000200271606 C-2.140000104904175,2.242000102996826 -1.9140000343322754,2.7820000648498535 -1.5130000114440918,3.180000066757202z"></path></g></g><g transform="matrix(1,0,0,1,76,98)" opacity="1" style="display: block;"><g opacity="1" transform="matrix(1,0,0,1,0,0)"><path fill="rgb(255,255,255)" fill-opacity="1" d=" M-3.187999963760376,-8.625 C-3.187999963760376,-8.625 -7,-3.125 -7,-3.125 C-7,-3.125 -7,35.5 -7,35.5 C-7,35.5 23.125,30 23.125,30 C23.125,30 22.875,19.687999725341797 22.875,19.687999725341797 C22.875,19.687999725341797 14.375,15.312000274658203 14.375,15.312000274658203 C14.375,15.312000274658203 2.812000036239624,14.5 2.812000036239624,14.5 C2.812000036239624,14.5 2.812000036239624,-4.938000202178955 2.812000036239624,-4.938000202178955 C2.812000036239624,-4.938000202178955 -3.187999963760376,-8.625 -3.187999963760376,-8.625z"></path><path stroke-linecap="butt" stroke-linejoin="miter" fill-opacity="0" stroke-miterlimit="4" stroke="rgb(0,221,56)" stroke-opacity="1" stroke-width="0" d=" M-3.187999963760376,-8.625 C-3.187999963760376,-8.625 -7,-3.125 -7,-3.125 C-7,-3.125 -7,35.5 -7,35.5 C-7,35.5 23.125,30 23.125,30 C23.125,30 22.875,19.687999725341797 22.875,19.687999725341797 C22.875,19.687999725341797 14.375,15.312000274658203 14.375,15.312000274658203 C14.375,15.312000274658203 2.812000036239624,14.5 2.812000036239624,14.5 C2.812000036239624,14.5 2.812000036239624,-4.938000202178955 2.812000036239624,-4.938000202178955 C2.812000036239624,-4.938000202178955 -3.187999963760376,-8.625 -3.187999963760376,-8.625z"></path></g><g opacity="1" transform="matrix(1,0,0,1,0,0)"><path fill="rgb(255,255,255)" fill-opacity="1" d=" M-15.312000274658203,20.062000274658203 C-15.312000274658203,20.062000274658203 -19.75,21 -19.75,21 C-19.75,21 -22.375,24.687999725341797 -22.375,24.687999725341797 C-22.375,24.687999725341797 -22.375,29.187999725341797 -22.375,29.187999725341797 C-22.375,29.187999725341797 -5.561999797821045,45.1879997253418 -5.561999797821045,45.1879997253418 C-5.561999797821045,45.1879997253418 -5.811999797821045,49.6879997253418 -5.811999797821045,49.6879997253418 C-5.811999797821045,49.6879997253418 18.375,49.25 18.375,49.25 C18.375,49.25 18.5,46.125 18.5,46.125 C18.5,46.125 22.312000274658203,33 22.312000274658203,33 C22.312000274658203,33 24.125,24.562000274658203 24.125,24.562000274658203 C24.125,24.562000274658203 11.75,21.375 11.75,21.375 C11.75,21.375 -4.938000202178955,27.437999725341797 -4.938000202178955,27.437999725341797 C-4.938000202178955,27.437999725341797 -9.375,23.75 -9.375,23.75 C-9.375,23.75 -15.312000274658203,20.062000274658203 -15.312000274658203,20.062000274658203z"></path><path stroke-linecap="butt" stroke-linejoin="miter" fill-opacity="0" stroke-miterlimit="4" stroke="rgb(0,221,56)" stroke-opacity="1" stroke-width="0" d=" M-15.312000274658203,20.062000274658203 C-15.312000274658203,20.062000274658203 -19.75,21 -19.75,21 C-19.75,21 -22.375,24.687999725341797 -22.375,24.687999725341797 C-22.375,24.687999725341797 -22.375,29.187999725341797 -22.375,29.187999725341797 C-22.375,29.187999725341797 -5.561999797821045,45.1879997253418 -5.561999797821045,45.1879997253418 C-5.561999797821045,45.1879997253418 -5.811999797821045,49.6879997253418 -5.811999797821045,49.6879997253418 C-5.811999797821045,49.6879997253418 18.375,49.25 18.375,49.25 C18.375,49.25 18.5,46.125 18.5,46.125 C18.5,46.125 22.312000274658203,33 22.312000274658203,33 C22.312000274658203,33 24.125,24.562000274658203 24.125,24.562000274658203 C24.125,24.562000274658203 11.75,21.375 11.75,21.375 C11.75,21.375 -4.938000202178955,27.437999725341797 -4.938000202178955,27.437999725341797 C-4.938000202178955,27.437999725341797 -9.375,23.75 -9.375,23.75 C-9.375,23.75 -15.312000274658203,20.062000274658203 -15.312000274658203,20.062000274658203z"></path></g></g><g transform="matrix(1,0,0,1,76.70600128173828,116.38200378417969)" opacity="1" style="display: block;"><g opacity="1" transform="matrix(2,0,0,2,0,0)"><path stroke-linecap="butt" stroke-linejoin="miter" fill-opacity="0" stroke-miterlimit="4" stroke="rgb(0,78,43)" stroke-opacity="1" stroke-width="1.5" d=" M8.708999633789062,13.708000183105469 C8.708999633789062,13.708000183105469 8.847000122070312,13.449999809265137 8.847000122070312,13.449999809265137 C10.673999786376953,9.819999694824219 11.62399959564209,5.817999839782715 11.623000144958496,1.7599999904632568 C11.623000144958496,1.0640000104904175 11.369999885559082,0.3919999897480011 10.90999984741211,-0.1340000033378601 C10.449999809265137,-0.6600000262260437 9.8149995803833,-1.0019999742507935 9.121000289916992,-1.100000023841858 C9.121000289916992,-1.100000023841858 1.496000051498413,-2.191999912261963 1.496000051498413,-2.191999912261963 C1.496000051498413,-2.191999912261963 1.496000051498413,-10.746999740600586 1.496000051498413,-10.746999740600586 C1.5019999742507935,-11.130000114440918 1.4270000457763672,-11.510000228881836 1.2769999504089355,-11.86400032043457 C1.1269999742507935,-12.218000411987305 0.9070000052452087,-12.536999702453613 0.6269999742507935,-12.802000045776367 C0.33799999952316284,-13.116000175476074 -0.019999999552965164,-13.362000465393066 -0.4180000126361847,-13.520000457763672 C-0.8159999847412109,-13.678000450134277 -1.2450000047683716,-13.744999885559082 -1.6729999780654907,-13.71500015258789 C-2.4140000343322754,-13.623000144958496 -3.0940001010894775,-13.263999938964844 -3.5859999656677246,-12.706000328063965 C-4.078000068664551,-12.14799976348877 -4.3460001945495605,-11.430999755859375 -4.340000152587891,-10.6899995803833 C-4.340000152587891,-10.6899995803833 -4.340000152587891,3.611999988555908 -4.340000152587891,3.611999988555908 C-4.340000152587891,3.611999988555908 -6.355000019073486,1.6740000247955322 -6.355000019073486,1.6740000247955322 C-6.934999942779541,1.100000023841858 -7.71999979019165,0.7770000100135803 -8.538999557495117,0.7770000100135803 C-9.357999801635742,0.7770000100135803 -10.144000053405762,1.100000023841858 -10.723999977111816,1.6740000247955322 C-11.29800033569336,2.256999969482422 -11.619999885559082,3.0390000343322754 -11.623000144958496,3.8540000915527344 C-11.612000465393066,4.644999980926514 -11.288999557495117,5.401000022888184 -10.723999977111816,5.959000110626221 C-10.723999977111816,5.959000110626221 -2.822999954223633,13.722000122070312 -2.822999954223633,13.722000122070312"></path></g></g></g></svg>