<svg xmlns="http://www.w3.org/2000/svg" xmlns:xlink="http://www.w3.org/1999/xlink" viewBox="0 0 204 180" width="204" height="180" preserveAspectRatio="xMidYMid meet" style="width: 100%; height: 100%; transform: translate3d(0px, 0px, 0px); content-visibility: visible;"><defs><clipPath id="__lottie_element_2"><rect width="204" height="180" x="0" y="0"></rect></clipPath></defs><g clip-path="url(#__lottie_element_2)"><g style="display: block;" transform="matrix(0.11039339751005173,0.9938879609107971,-0.9938879609107971,0.11039339751005173,114.32548522949219,123.31190490722656)" opacity="1"><g opacity="1" transform="matrix(1.9746062755584717,-0.317694753408432,0.317694753408432,1.9746062755584717,0,0)"><path stroke-linecap="butt" stroke-linejoin="round" fill-opacity="0" stroke="rgb(0,221,57)" stroke-opacity="1" stroke-width="3.9" d=" M-4.033999919891357,4.033999919891357 C-2.259999990463257,3.3259999752044678 -0.6340000033378601,2.25 0.7509999871253967,0.8650000095367432 C2.135999917984009,-0.5199999809265137 3.252000093460083,-2.184999942779541 4.033999919891357,-4.033999919891357"></path></g></g><g style="display: block;" transform="matrix(1,0,0,1,85.8949966430664,84.33200073242188)" opacity="1"><g opacity="1" transform="matrix(2,0,0,2,0,0)"><path stroke-linecap="butt" stroke-linejoin="miter" fill-opacity="0" stroke-miterlimit="4" stroke="rgb(0,78,43)" stroke-opacity="1" stroke-width="1.5" d=" M-1.684000015258789,2.3499999046325684 C-1.684000015258789,2.3499999046325684 1.684000015258789,-2.3499999046325684 1.684000015258789,-2.3499999046325684"></path></g></g><g style="display: block;" transform="matrix(1,0,0,1,105.552001953125,77.66899871826172)" opacity="1"><g opacity="1" transform="matrix(2,0,0,2,0,0)"><path stroke-linecap="round" stroke-linejoin="miter" fill-opacity="0" stroke-miterlimit="4" stroke="rgb(0,78,43)" stroke-opacity="1" stroke-width="1.5" d=" M3.7060000896453857,5.209000110626221 C3.7060000896453857,5.209000110626221 -3.7060000896453857,-5.209000110626221 -3.7060000896453857,-5.209000110626221"></path></g></g><g transform="matrix(1,0,0,1,71.80699920654297,104.5459976196289)" opacity="1" style="display: block;"><g opacity="1" transform="matrix(2,0,0,2,0,0)"><path stroke-linecap="butt" stroke-linejoin="miter" fill-opacity="0" stroke-miterlimit="4" stroke="rgb(0,78,43)" stroke-opacity="1" stroke-width="1.5" d=" M0,9.904000282287598 C5.46999979019165,9.904000282287598 9.904000282287598,5.46999979019165 9.904000282287598,0 C9.904000282287598,-5.46999979019165 5.46999979019165,-9.904000282287598 0,-9.904000282287598 C-5.46999979019165,-9.904000282287598 -9.904000282287598,-5.46999979019165 -9.904000282287598,0 C-9.904000282287598,5.46999979019165 -5.46999979019165,9.904000282287598 0,9.904000282287598z"></path></g></g><g style="display: block;" transform="matrix(1,0,0,1,97.95700073242188,67.43000030517578)" opacity="1"><g opacity="1" transform="matrix(2,0,0,2,0,0)"><path stroke-linecap="butt" stroke-linejoin="miter" fill-opacity="0" stroke-miterlimit="4" stroke="rgb(0,78,43)" stroke-opacity="1" stroke-width="1.5" d=" M0,7.715000152587891 C4.261000156402588,7.715000152587891 7.715000152587891,4.261000156402588 7.715000152587891,0 C7.715000152587891,-4.261000156402588 4.261000156402588,-7.715000152587891 0,-7.715000152587891 C-4.261000156402588,-7.715000152587891 -7.715000152587891,-4.261000156402588 -7.715000152587891,0 C-7.715000152587891,4.261000156402588 -4.261000156402588,7.715000152587891 0,7.715000152587891z"></path></g></g><g style="display: block;" transform="matrix(1,0,0,1,124.44499969482422,104.5459976196289)" opacity="1"><g opacity="1" transform="matrix(2,0,0,2,0,0)"><path stroke-linecap="butt" stroke-linejoin="miter" fill-opacity="0" stroke-miterlimit="4" stroke="rgb(0,78,43)" stroke-opacity="1" stroke-width="1.5" d=" M0,9.904000282287598 C5.46999979019165,9.904000282287598 9.904000282287598,5.46999979019165 9.904000282287598,0 C9.904000282287598,-5.46999979019165 5.46999979019165,-9.904000282287598 0,-9.904000282287598 C-5.46999979019165,-9.904000282287598 -9.904000282287598,-5.46999979019165 -9.904000282287598,0 C-9.904000282287598,5.46999979019165 -5.46999979019165,9.904000282287598 0,9.904000282287598z"></path></g></g></g></svg>